# xmcd
#
# Track frame offsets:
#	150
#	36850
#	90792
#	119826
#	153758
#	211124
#	245629
#	279107
#
# Disc length: 4113
#
# Revision: 1
# Processed by: cddbd v1.5.1PL0 Copyright (c) Steve Scherf et al.
# Submitted via: ExactAudioCopy v0.95a5
# Normalized: r0:TDELIM( - )
#
DISCID=5e100f08
DTITLE=Ephemere - Quintet famimra
DYEAR=2000
DGENRE=Blues
TTITLE0=Miles Davis - All Blues
TTITLE1=Ephemere - Tentes Urbaines
TTITLE2=Ephemere - Oriental Funk
TTITLE3=Oscar Peterson - Nigerian Marketplace
TTITLE4=Ephemere - Famimra
TTITLE5=Ephemere - Le Funk
TTITLE6=Dizzy Gillespie - A Night In Tunisia
TTITLE7=Don Grolnick - Nothing Personal
EXTD=
EXTT0=
EXTT1=
EXTT2=
EXTT3=
EXTT4=
EXTT5=
EXTT6=
EXTT7=
PLAYORDER=
